Coordinates
version=1
nRows=23
nColumns=34
inDegrees=no

Units are S.I. units (second, meters, Newtons, ...)
If the header above contains a line with 'inDegrees', this indicates whether rotational values are in degrees (yes) or radians (no).

endheader
time	pelvis_tilt	pelvis_list	pelvis_rotation	pelvis_tx	pelvis_ty	pelvis_tz	hip_flexion_r	hip_adduction_r	hip_rotation_r	knee_angle_r	ankle_angle_r	subtalar_angle_r	mtp_angle_r	hip_flexion_l	hip_adduction_l	hip_rotation_l	knee_angle_l	ankle_angle_l	subtalar_angle_l	mtp_angle_l	lumbar_extension	lumbar_bending	lumbar_rotation	arm_flex_r	arm_add_r	arm_rot_r	elbow_flex_r	pro_sup_r	arm_flex_l	arm_add_l	arm_rot_l	elbow_flex_l	pro_sup_l
1.35	-0.159306	0.0260023	0.0102103	-0.64973	1.28816	-0.572446	0.517906	-0.143174	-0.22697	0.434472	-0.321186	0.0936475	0	0.488038	-0.0961089	-0.244336	0.274389	-0.380205	0.146434	0	-0.160019	-0.0241971	-0.0436342	1.00764	-1.11825	0.843481	1.55405	1.8334	1.10752	-0.765502	0.356541	1.03844	2.09
1.36	-0.157604	0.0272666	0.00936001	-0.639418	1.27759	-0.572042	0.520796	-0.146816	-0.249287	0.397798	-0.349747	0.114094	0	0.494362	-0.0968417	-0.266505	0.244505	-0.404613	0.165364	0	-0.164174	-0.0247718	-0.0434338	1.01971	-1.14686	0.889052	1.56179	1.82684	1.10732	-0.799639	0.390635	1.02615	2.09
1.37	-0.155987	0.0286263	0.00787812	-0.628888	1.26594	-0.571739	0.524138	-0.149972	-0.268859	0.365156	-0.377279	0.136756	0	0.500408	-0.096613	-0.279624	0.21783	-0.428684	0.179529	0	-0.167397	-0.0252883	-0.0418123	1.03046	-1.17869	0.933199	1.57362	1.82881	1.10636	-0.83538	0.427208	1.01522	2.09
1.38	-0.153958	0.0304395	0.00509528	-0.618121	1.25325	-0.57134	0.527762	-0.151972	-0.28201	0.336902	-0.400734	0.158684	0	0.505101	-0.0956285	-0.283665	0.193736	-0.449981	0.188447	0	-0.170467	-0.026018	-0.0380524	1.03983	-1.21524	0.975156	1.59059	1.83072	1.10346	-0.871408	0.461886	1.00581	2.09
1.39	-0.151025	0.0324102	0.00118351	-0.607074	1.2396	-0.57079	0.531541	-0.152198	-0.28568	0.313813	-0.418789	0.175215	0	0.508019	-0.0946495	-0.281051	0.172576	-0.467934	0.195158	0	-0.17386	-0.0266998	-0.0334572	1.04714	-1.25414	1.01345	1.61032	1.82692	1.09708	-0.908361	0.491037	0.998639	2.09
1.4	-0.147502	0.0337529	-0.00281388	-0.595727	1.22496	-0.5702	0.536634	-0.151635	-0.284138	0.298052	-0.432035	0.187619	0	0.510404	-0.0945623	-0.274306	0.155807	-0.483096	0.201845	0	-0.176942	-0.0270996	-0.0293375	1.04347	-1.29315	1.03853	1.62998	1.82043	1.08837	-0.947672	0.518554	0.992666	2.09
1.41	-0.143844	0.0343032	-0.00654623	-0.584079	1.20927	-0.569612	0.543041	-0.151515	-0.284894	0.288962	-0.443332	0.199398	0	0.51335	-0.0957262	-0.265737	0.144509	-0.496324	0.208064	0	-0.179089	-0.0273681	-0.0235405	1.0101	-1.33579	1.03155	1.65141	1.81488	1.08086	-0.986889	0.550497	0.985553	2.09
1.42	-0.139974	0.0345813	-0.0103749	-0.572089	1.19253	-0.568988	0.548518	-0.151865	-0.2902	0.282277	-0.455553	0.209516	0	0.516517	-0.0978024	-0.258438	0.138504	-0.507926	0.213667	0	-0.180639	-0.0274995	-0.0131459	0.915009	-1.38633	0.960452	1.67799	1.81108	1.07593	-1.02286	0.587841	0.97779	2.09
1.43	-0.136011	0.0349081	-0.0144577	-0.559709	1.17477	-0.568317	0.551818	-0.152074	-0.29764	0.275213	-0.468616	0.21558	0	0.519393	-0.100471	-0.255426	0.137043	-0.516804	0.220545	0	-0.181925	-0.027379	0.00273613	0.659771	-1.4416	0.726143	1.70988	1.80934	1.07268	-1.05531	0.628815	0.971928	2.09
1.44	-0.132719	0.0351254	-0.0187168	-0.546916	1.15602	-0.567634	0.554022	-0.151742	-0.304484	0.268195	-0.480371	0.217051	0	0.522406	-0.104029	-0.257514	0.139718	-0.521614	0.229735	0	-0.182594	-0.0266935	0.0219506	0.00628721	-1.47595	0.0899951	1.74443	1.81258	1.06457	-1.08761	0.66488	0.972331	2.09
1.45	-0.130712	0.0348538	-0.0229587	-0.533699	1.13637	-0.566973	0.556752	-0.15123	-0.310778	0.26323	-0.489491	0.21665	0	0.526266	-0.109021	-0.262935	0.146427	-0.523808	0.238679	0	-0.182609	-0.0244141	0.0400055	-0.745893	-1.44795	-0.647685	1.78046	1.81746	1.03826	-1.126	0.681216	0.983959	2.09
1.46	-0.129979	0.0332824	-0.0269456	-0.520098	1.11585	-0.566406	0.561103	-0.15055	-0.316504	0.262061	-0.499987	0.21575	0	0.531355	-0.115739	-0.267973	0.157121	-0.528177	0.241969	0	-0.183049	-0.0185153	0.043961	-1.05784	-1.39525	-0.947492	1.81297	1.82044	0.951978	-1.18689	0.634144	1.01828	2.09
1.47	-0.130157	0.0302117	-0.0310269	-0.506299	1.09451	-0.566036	0.567726	-0.149083	-0.31785	0.265638	-0.516689	0.210685	0	0.538138	-0.12374	-0.269365	0.172957	-0.536307	0.235529	0	-0.185904	-0.0090541	0.0164804	-1.13806	-1.37229	-1.01928	1.83261	1.81939	0.682034	-1.28206	0.398209	1.08789	2.09
1.48	-0.129791	0.027231	-0.0353356	-0.492661	1.0723	-0.565859	0.575466	-0.147269	-0.308849	0.274624	-0.534736	0.200548	0	0.54655	-0.131174	-0.263402	0.197008	-0.540966	0.21866	0	-0.192626	-0.000539963	-0.0388059	-1.09948	-1.3816	-0.975971	1.83517	1.81422	0.00548482	-1.34574	-0.247593	1.17672	2.09
1.49	-0.126045	0.0259926	-0.0389492	-0.479448	1.04904	-0.565659	0.582178	-0.146432	-0.286625	0.28868	-0.552878	0.191818	0	0.555367	-0.136326	-0.248383	0.231037	-0.540472	0.198094	0	-0.202341	0.00293184	-0.0852777	-1.06289	-1.37377	-0.93367	1.83147	1.8075	-0.629272	-1.29801	-0.84769	1.2442	2.09
1.5	-0.118233	0.0246444	-0.041699	-0.466638	1.02473	-0.565344	0.589135	-0.144722	-0.253417	0.306774	-0.584916	0.18369	0	0.56499	-0.140226	-0.223477	0.271836	-0.551643	0.17977	0	-0.213885	0.00454043	-0.106455	-1.09754	-1.33073	-0.958387	1.82908	1.80389	-0.910623	-1.22266	-1.08891	1.28463	2.0822
1.51	-0.109699	0.0205533	-0.0457194	-0.454695	0.999816	-0.564976	0.60208	-0.138904	-0.215031	0.339434	-0.603595	0.172415	0	0.579932	-0.146099	-0.194645	0.322052	-0.559795	0.16657	0	-0.226221	0.00869509	-0.111843	-1.13968	-1.27064	-0.98708	1.82293	1.80405	-1.04523	-1.15171	-1.18302	1.31081	2.06538
1.52	-0.105932	0.0153668	-0.0519527	-0.444338	0.974591	-0.564643	0.630483	-0.131029	-0.176914	0.417031	-0.510816	0.16837	0	0.608524	-0.154778	-0.172914	0.402196	-0.482724	0.15906	0	-0.236038	0.0141933	-0.108936	-1.15925	-1.20485	-0.991992	1.80928	1.80802	-1.11349	-1.08531	-1.21442	1.32727	2.04182
1.53	-0.107689	0.0137832	-0.0563524	-0.434556	0.948129	-0.56453	0.676663	-0.128223	-0.141996	0.553504	-0.262319	0.178013	0	0.652891	-0.161771	-0.160693	0.527875	-0.265609	0.154431	0	-0.239306	0.0162159	-0.106523	-1.16264	-1.13876	-0.978021	1.78824	1.81338	-1.15351	-1.02356	-1.21722	1.3373	2.00164
1.54	-0.110215	0.0140368	-0.0573426	-0.423978	0.920391	-0.564654	0.723853	-0.124934	-0.104603	0.700581	0.0125573	0.156522	0	0.699793	-0.166275	-0.149884	0.669144	2.18918e-05	0.133384	0	-0.238629	0.0169634	-0.10806	-1.15932	-1.07531	-0.95292	1.76326	1.80628	-1.17844	-0.963854	-1.20251	1.34377	1.93828
1.55	-0.117093	0.0123847	-0.0576736	-0.4138	0.893048	-0.56483	0.769644	-0.11623	-0.0714341	0.819559	0.209114	0.0945989	0	0.748183	-0.172657	-0.136657	0.791669	0.19789	0.0873329	0	-0.234971	0.0208116	-0.110497	-1.14141	-1.01371	-0.914908	1.73428	1.79746	-1.17961	-0.90336	-1.175	1.33719	1.93026
1.56	-0.139202	0.00772473	-0.060176	-0.406128	0.867074	-0.564752	0.82803	-0.106302	-0.0524498	0.911415	0.330729	0.0297185	0	0.814866	-0.187347	-0.121612	0.897151	0.31208	0.0315539	0	-0.221546	0.029003	-0.110373	-1.10255	-0.952906	-0.863892	1.69936	1.79203	-1.1569	-0.842729	-1.1299	1.32269	1.91985
1.57	-0.178078	0.00131644	-0.0655398	-0.401435	0.842615	-0.564378	0.908175	-0.0970865	-0.0405787	0.993827	0.390359	-0.0321427	0	0.907385	-0.207541	-0.0977919	0.998142	0.358324	-0.0381785	0	-0.196853	0.0403328	-0.105907	-1.04947	-0.891547	-0.808988	1.65773	1.80416	-1.11662	-0.78539	-1.07111	1.302	1.91144
